# Blender v2.66 (sub 0) OBJ File: ''
# www.blender.org
mtllib easy.mtl
o floor_Cube_Cube_Material.000_floor_Cube_Cube_Material.000_Mater
v 13.040844 0.000008 -7.021993
v -13.040844 0.000008 -7.021993
v -13.040844 -0.000001 7.021993
v 13.040844 -0.000001 7.021993
v 13.040844 0.000007 -5.015709
v 13.040844 0.000005 -3.009426
v 13.040844 0.000004 -1.003142
v 13.040844 0.000003 1.003142
v 13.040844 0.000002 3.009426
v 13.040844 0.000000 5.015709
v -9.314888 -0.000001 7.021993
v -5.588933 -0.000001 7.021993
v -1.862977 -0.000001 7.021993
v 1.862978 -0.000001 7.021993
v 5.588933 -0.000001 7.021993
v 9.314889 -0.000001 7.021993
v 9.314888 0.000008 -7.021993
v 5.588933 0.000008 -7.021993
v 1.862977 0.000008 -7.021993
v -1.862978 0.000008 -7.021993
v -5.588933 0.000008 -7.021993
v -9.314889 0.000008 -7.021993
v -13.040844 0.000007 -5.015709
v -13.040844 0.000005 -3.009426
v -13.040844 0.000004 -1.003142
v -13.040844 0.000003 1.003142
v -13.040844 0.000002 3.009426
v -13.040844 0.000000 5.015709
v -9.314888 0.000000 5.015709
v -9.314888 0.000002 3.009426
v -9.314888 0.000003 1.003142
v -9.314888 0.000004 -1.003142
v -9.314888 0.000005 -3.009426
v -9.314888 0.000007 -5.015709
v -5.588933 0.000000 5.015709
v -5.588933 0.000007 -5.015709
v -1.862977 0.000000 5.015709
v -1.862978 0.000007 -5.015709
v 1.862978 0.000000 5.015709
v 1.862977 0.000007 -5.015709
v 5.588933 0.000000 5.015709
v 5.588933 0.000007 -5.015709
v 9.314889 0.000000 5.015709
v 9.314889 0.000002 3.009426
v 9.314889 0.000003 1.003142
v 9.314889 0.000004 -1.003142
v 9.314889 0.000005 -3.009426
v 9.314888 0.000007 -5.015709
v -9.314888 0.200000 5.015709
v -9.314888 0.200002 3.009426
v -9.314888 0.200003 1.003142
v -9.314888 0.200004 -1.003142
v -9.314888 0.200006 -3.009426
v -9.314888 0.200007 -5.015709
v -5.588933 0.200000 5.015709
v -5.588933 0.200002 3.009426
v -5.588933 0.200003 1.003142
v -5.588933 0.200004 -1.003142
v -5.588933 0.200006 -3.009426
v -5.588933 0.200007 -5.015709
v -1.862977 0.200000 5.015709
v -1.862978 0.200002 3.009426
v 1.862978 0.600004 -1.003142
v 1.862978 0.600003 1.003142
v -1.862978 0.200006 -3.009426
v -1.862978 0.200007 -5.015709
v 1.862978 0.200000 5.015709
v 1.862978 0.200002 3.009426
v -1.862978 0.600004 -1.003142
v -1.862978 0.600003 1.003142
v 1.862977 0.200006 -3.009426
v 1.862977 0.200007 -5.015709
v 5.588933 0.200000 5.015709
v 5.588933 0.200002 3.009426
v 5.588933 0.200003 1.003142
v 5.588933 0.200004 -1.003142
v 5.588933 0.200006 -3.009426
v 5.588933 0.200007 -5.015709
v 9.314889 0.200000 5.015709
v 9.314889 0.200002 3.009426
v 9.314889 0.200003 1.003142
v 9.314889 0.200004 -1.003142
v 9.314889 0.200006 -3.009426
v 9.314888 0.200007 -5.015709
v -5.588933 0.400002 3.009426
v -5.588933 0.400003 1.003142
v -5.588933 0.400004 -1.003142
v -5.588933 0.400005 -3.009426
v -1.862978 0.400002 3.009426
v -1.862978 0.400003 1.003142
v -1.862978 0.400004 -1.003142
v -1.862978 0.400005 -3.009426
v 1.862978 0.400002 3.009426
v 1.862978 0.400003 1.003142
v 1.862978 0.400004 -1.003142
v 1.862977 0.400005 -3.009426
v 5.588933 0.400002 3.009426
v 5.588933 0.400003 1.003142
v 5.588933 0.400004 -1.003142
v 5.588933 0.400005 -3.009426
vt 0.857143 0.857143
vt 1.000000 0.857143
vt 1.000000 1.000000
vt 0.000000 0.857143
vt 0.142857 0.857143
vt 0.142857 1.000000
vt 0.285714 0.857143
vt 0.285714 1.000000
vt 0.428571 0.857143
vt 0.428571 1.000000
vt 0.571429 0.857143
vt 0.571429 1.000000
vt 0.714286 0.857143
vt 0.714286 1.000000
vt 0.857143 1.000000
vt 0.000000 0.000000
vt 0.142857 0.000000
vt 0.000000 0.142857
vt 0.142857 0.142857
vt 0.000000 0.285714
vt 0.142857 0.285714
vt 0.000000 0.428571
vt 0.142857 0.428571
vt 0.142857 0.571429
vt 0.000000 0.571429
vt 0.142857 0.714286
vt 0.000000 0.714286
vt 0.285714 0.000000
vt 0.285714 0.142857
vt 0.428571 0.000000
vt 0.428571 0.142857
vt 0.571429 0.000000
vt 0.571429 0.142857
vt 0.714286 0.000000
vt 0.714286 0.142857
vt 0.857143 0.000000
vt 0.857143 0.142857
vt 1.000000 0.000000
vt 1.000000 0.142857
vt 1.000000 0.285714
vt 0.857143 0.285714
vt 1.000000 0.428571
vt 0.857143 0.428571
vt 1.000000 0.571429
vt 0.857143 0.571429
vt 1.000000 0.714286
vt 0.857143 0.714286
vt 0.285714 0.285714
vt 0.285714 0.428571
vt 0.285714 0.571429
vt 0.285714 0.714286
vt 0.428571 0.285714
vt 0.428571 0.714286
vt 0.571429 0.285714
vt 0.571429 0.714286
vt 0.714286 0.285714
vt 0.428571 0.428571
vt 0.571429 0.428571
vt 0.571429 0.571429
vt 0.714286 0.714286
vt 0.714286 0.428571
vt 0.714286 0.571429
vt 0.428571 0.571429
vt 0.464565 0.432503
vt 0.560298 0.513797
vt 0.552194 0.523340
vt 0.746072 0.766529
vt 0.568282 0.615554
vt 0.923861 0.917503
vt 0.466553 0.430148
vt 0.370323 0.349443
vt 0.562783 0.510853
vt 0.586768 0.593708
vt 0.764558 0.744683
vt 0.408978 0.442734
vt 0.240156 0.281073
vt 0.418869 0.430954
vt 0.061444 0.131192
vt 0.291236 0.248424
vt 0.386969 0.329718
vt 0.378865 0.339261
vt 0.419792 0.429860
vt 0.242002 0.278885
vt 0.597582 0.580834
vt 0.292230 0.247246
vt 0.196000 0.166541
vt 0.388460 0.327951
vt 0.133985 0.045292
vt 0.142031 0.035699
vt 0.238260 0.116405
vt 0.117558 0.064698
vt 0.125662 0.055155
vt 0.303452 0.206129
vt 0.125881 0.054836
vt 0.221615 0.136130
vt 0.108590 0.075385
vt 0.116635 0.065792
vt 0.287303 0.225265
vt 0.000000 1.000000
vt 0.456461 0.442047
vt 0.368832 0.351209
vt 0.360728 0.360753
vt 0.273099 0.269915
vt 0.264995 0.279458
vt 0.177366 0.188621
vt 0.081634 0.107327
vt 0.073529 0.116871
vt 0.169262 0.198164
vt 0.390492 0.464579
vt 0.212702 0.313605
vt 0.034913 0.162630
vt 0.043017 0.153087
vt 0.220806 0.304061
vt 0.931965 0.907960
vt 0.398596 0.455036
vt 0.576386 0.606011
vt 0.754175 0.756985
vt 0.274093 0.268738
vt 0.177863 0.188032
vt 0.089679 0.097734
vt 0.185909 0.178440
vt 0.282138 0.259145
vt 0.378368 0.339850
vt 0.474598 0.420555
vt 0.570828 0.501260
vt 0.942347 0.895658
vt 0.934243 0.905201
vt 0.756453 0.754226
vt 0.231188 0.291759
vt 0.053399 0.140785
vt 0.578664 0.603252
vt 0.400874 0.452277
vt 0.223084 0.301302
vt 0.045295 0.150328
vt 0.597582 0.580835
vt 0.589537 0.590427
vt 0.410824 0.440546
vt 0.232111 0.290666
vt 0.283132 0.257967
vt 0.195503 0.167130
vt 0.099770 0.085836
vt 0.091666 0.095379
vt 0.187399 0.176673
vt 0.064213 0.127911
vt 0.072316 0.118367
vt 0.250106 0.269342
vt 0.427896 0.420317
vt 0.605686 0.571291
vt 0.107816 0.076243
vt 0.204045 0.156948
vt 0.300275 0.237653
vt 0.396505 0.318358
vt 0.230215 0.125997
vt 0.295348 0.215673
vt 0.229718 0.126586
vn 0.000000 1.000000 0.000001
vn -1.000000 -0.000000 -0.000000
vn 0.000000 0.000000 0.000000
vn 1.000000 0.000000 -0.000000
vn -0.000000 0.000000 1.000000
vn 0.000000 0.000000 -1.000000
vn 1.000000 -0.000019 -0.000000
vn 0.062378 -0.998053 -0.000001
vn 1.000000 0.000002 0.000000
vn 0.124035 -0.992278 -0.000001
g floor_Cube_Cube_Material.000_floor_Cube_Cube_Material.000_Mater_floor_Cube_Cube_Material.000_floor_Cube_Cube_Material.000_Mater_Material.002
usemtl Material.002
s off
f 48/1/1 5/2/1 1/3/1
f 23/4/1 34/5/1 22/6/1
f 34/5/1 36/7/1 21/8/1
f 36/7/1 38/9/1 20/10/1
f 38/9/1 40/11/1 19/12/1
f 40/11/1 42/13/1 18/14/1
f 42/13/1 48/1/1 17/15/1
f 3/16/1 11/17/1 28/18/1
f 28/18/1 29/19/1 27/20/1
f 27/20/1 30/21/1 26/22/1
f 26/22/1 31/23/1 32/24/1
f 25/25/1 32/24/1 33/26/1
f 24/27/1 33/26/1 34/5/1
f 11/17/1 12/28/1 35/29/1
f 12/28/1 13/30/1 37/31/1
f 13/30/1 14/32/1 39/33/1
f 14/32/1 15/34/1 41/35/1
f 15/34/1 16/36/1 43/37/1
f 16/36/1 4/38/1 43/37/1
f 43/37/1 10/39/1 9/40/1
f 44/41/1 9/40/1 8/42/1
f 45/43/1 8/42/1 7/44/1
f 46/45/1 7/44/1 6/46/1
f 47/47/1 6/46/1 5/2/1
f 49/19/1 55/29/1 50/21/1
f 50/21/1 56/48/1 57/49/1
f 51/23/1 57/49/1 58/50/1
f 52/24/1 58/50/1 59/51/1
f 53/26/1 59/51/1 60/7/1
f 55/29/1 61/31/1 62/52/1
f 59/51/1 65/53/1 66/9/1
f 61/31/1 67/33/1 68/54/1
f 65/53/1 71/55/1 72/11/1
f 67/33/1 73/35/1 74/56/1
f 70/57/1 64/58/1 63/59/1
f 71/55/1 77/60/1 78/13/1
f 73/35/1 79/37/1 74/56/1
f 74/56/1 80/41/1 81/43/1
f 75/61/1 81/43/1 82/45/1
f 76/62/1 82/45/1 83/47/1
f 77/60/1 83/47/1 84/1/1
f 85/48/1 89/52/1 90/57/1
f 86/49/1 90/57/1 91/63/1
f 87/50/1 91/63/1 92/53/1
f 89/52/1 93/54/1 90/57/1
f 30/64/2 29/65/2 49/66/2
f 91/63/1 95/59/1 96/55/1
f 93/54/1 97/56/1 98/61/1
f 94/58/1 98/61/1 99/62/1
f 95/59/1 99/62/1 100/60/1
f 35/67/3 37/68/3 29/69/3
f 44/70/2 45/71/2 43/72/2
f 38/73/3 36/74/3 40/75/3
f 71/76/3 65/77/3 77/78/3
f 57/79/2 56/80/2 85/81/2
f 62/82/3 68/83/3 56/84/3
f 75/85/1 76/86/1 74/87/1
f 95/88/4 63/89/4 64/90/4
f 94/91/5 64/92/5 70/93/5
f 69/94/2 91/88/2 70/95/2
f 63/96/6 95/97/6 69/98/6
f 17/15/1 48/1/1 1/3/1
f 2/99/1 23/4/1 22/6/1
f 22/6/1 34/5/1 21/8/1
f 21/8/1 36/7/1 20/10/1
f 20/10/1 38/9/1 19/12/1
f 19/12/1 40/11/1 18/14/1
f 18/14/1 42/13/1 17/15/1
f 11/17/1 29/19/1 28/18/1
f 29/19/1 30/21/1 27/20/1
f 30/21/1 31/23/1 26/22/1
f 25/25/1 26/22/1 32/24/1
f 24/27/1 25/25/1 33/26/1
f 23/4/1 24/27/1 34/5/1
f 29/19/1 11/17/1 35/29/1
f 35/29/1 12/28/1 37/31/1
f 37/31/1 13/30/1 39/33/1
f 39/33/1 14/32/1 41/35/1
f 41/35/1 15/34/1 43/37/1
f 4/38/1 10/39/1 43/37/1
f 44/41/1 43/37/1 9/40/1
f 45/43/1 44/41/1 8/42/1
f 46/45/1 45/43/1 7/44/1
f 47/47/1 46/45/1 6/46/1
f 48/1/1 47/47/1 5/2/1
f 55/29/1 56/48/1 50/21/1
f 51/23/1 50/21/1 57/49/1
f 52/24/1 51/23/1 58/50/1
f 53/26/1 52/24/1 59/51/1
f 54/5/1 53/26/1 60/7/1
f 56/48/1 55/29/1 62/52/1
f 60/7/1 59/51/1 66/9/1
f 62/52/1 61/31/1 68/54/1
f 66/9/1 65/53/1 72/11/1
f 68/54/1 67/33/1 74/56/1
f 69/63/1 70/57/1 63/59/1
f 72/11/1 71/55/1 78/13/1
f 79/37/1 80/41/1 74/56/1
f 75/61/1 74/56/1 81/43/1
f 76/62/1 75/61/1 82/45/1
f 77/60/1 76/62/1 83/47/1
f 78/13/1 77/60/1 84/1/1
f 86/49/1 85/48/1 90/57/1
f 87/50/1 86/49/1 91/63/1
f 88/51/1 87/50/1 92/53/1
f 93/54/1 94/58/1 90/57/1
f 30/64/2 49/66/2 50/100/2
f 31/101/2 30/64/2 50/100/2
f 31/101/2 50/100/2 51/102/2
f 32/103/2 31/101/2 51/102/2
f 32/103/2 51/102/2 52/104/2
f 33/105/2 32/103/2 52/104/2
f 34/106/2 33/105/2 54/107/2
f 33/105/2 52/104/2 53/108/2
f 54/107/2 33/105/2 53/108/2
f 92/53/1 91/63/1 96/55/1
f 94/58/1 93/54/1 98/61/1
f 95/59/1 94/58/1 99/62/1
f 96/55/1 95/59/1 100/60/1
f 37/68/3 39/109/3 29/69/3
f 39/109/3 41/110/3 29/69/3
f 41/110/3 43/111/3 29/69/3
f 43/111/5 79/112/5 73/113/5
f 29/69/5 43/111/5 49/114/5
f 43/111/5 73/113/5 49/114/5
f 73/113/3 67/115/3 49/114/3
f 67/115/3 61/116/3 55/117/3
f 49/114/3 67/115/3 55/117/3
f 45/71/2 46/118/2 43/72/2
f 46/118/3 47/119/3 43/72/3
f 47/119/1 48/106/1 43/72/1
f 48/106/4 84/120/4 43/72/4
f 84/120/7 83/121/7 43/72/7
f 83/121/4 82/122/4 43/72/4
f 82/122/4 81/123/4 43/72/4
f 81/123/3 80/124/3 79/125/3
f 43/72/4 81/123/4 79/125/4
f 36/74/3 34/126/3 40/75/3
f 34/126/6 54/127/6 60/128/6
f 40/75/6 34/126/6 60/128/6
f 42/129/3 40/75/3 48/130/3
f 40/75/6 60/128/6 48/130/6
f 60/128/6 66/131/6 48/130/6
f 66/131/6 72/132/6 48/130/6
f 72/132/3 78/133/3 84/134/3
f 48/130/6 72/132/6 84/134/6
f 65/77/6 59/135/6 88/136/6
f 77/78/6 65/77/6 100/130/6
f 65/77/6 88/136/6 100/130/6
f 88/136/3 92/137/3 100/130/3
f 92/137/3 96/138/3 100/130/3
f 57/79/2 85/81/2 86/139/2
f 58/140/2 57/79/2 86/139/2
f 59/141/2 58/140/2 88/142/2
f 58/140/2 86/139/2 87/143/2
f 88/142/2 58/140/2 87/143/2
f 68/83/3 74/144/3 56/84/3
f 74/144/5 97/145/5 56/84/5
f 97/145/5 93/146/5 56/84/5
f 93/146/5 89/147/5 56/84/5
f 89/147/5 85/148/5 56/84/5
f 76/86/8 77/141/8 74/87/8
f 77/141/4 100/149/4 74/87/4
f 100/149/9 99/150/9 74/87/9
f 99/150/10 98/151/10 97/152/10
f 74/87/4 99/150/4 97/152/4
f 94/153/4 95/88/4 64/90/4
f 90/154/5 94/91/5 70/93/5
f 91/88/2 90/155/2 70/95/2
f 95/97/6 91/154/6 69/98/6
